<?xml version="1.0" standalone="no"?>
<!DOCTYPE svg PUBLIC "-//W3C//DTD SVG 20010904//EN"
 "http://www.w3.org/TR/2001/REC-SVG-20010904/DTD/svg10.dtd">
<svg version="1.0" xmlns="http://www.w3.org/2000/svg"
 width="427.000000pt" height="427.000000pt" viewBox="0 0 427.000000 427.000000"
 preserveAspectRatio="xMidYMid meet">
<metadata>
Created by potrace 1.14, written by Peter Selinger 2001-2017
</metadata>
<g transform="translate(0.000000,427.000000) scale(0.100000,-0.100000)"
fill="#000000" stroke="none">
<path d="M0 2135 l0 -2135 2135 0 2135 0 0 2135 0 2135 -2135 0 -2135 0 0
-2135z m1650 2020 c0 -43 -4 -75 -10 -75 -6 0 -10 32 -10 75 0 43 4 75 10 75
6 0 10 -32 10 -75z m-50 50 c19 -22 8 -49 -27 -65 -22 -10 -33 -22 -33 -37 0
-13 -4 -23 -10 -23 -6 0 -10 30 -10 70 l0 70 34 0 c18 0 39 -7 46 -15z m532
-10 c6 -14 14 -25 18 -25 4 0 12 11 18 25 6 14 17 25 23 25 6 0 9 -3 7 -7 -2
-5 -10 -20 -17 -35 -12 -24 -12 -32 0 -55 7 -16 15 -31 17 -35 2 -5 -1 -8 -7
-8 -6 0 -17 11 -23 25 -6 14 -14 25 -18 25 -4 0 -13 -11 -20 -25 -7 -14 -20
-25 -27 -25 -11 0 -9 7 6 29 25 34 26 50 6 77 -17 23 -19 34 -5 34 6 0 16 -11
22 -25z m108 5 c0 -11 -4 -20 -10 -20 -5 0 -10 9 -10 20 0 11 5 20 10 20 6 0
10 -9 10 -20z m208 -20 c15 -1 15 -2 0 -11 -22 -12 -24 -57 -3 -65 21 -9 19
-24 -4 -24 -22 0 -29 17 -33 70 -2 40 14 78 20 48 2 -10 11 -18 20 -18z m-700
-51 l3 -46 -36 -1 c-23 -1 -38 4 -42 13 -7 20 14 45 38 45 11 0 19 5 19 11 0
7 -10 9 -25 7 -14 -3 -25 -2 -25 2 0 14 15 21 40 18 22 -3 25 -8 28 -49z m53
14 l13 -38 14 38 c16 39 38 52 26 15 -19 -63 -54 -128 -68 -128 -21 0 -20 10
2 26 16 12 16 15 0 62 -21 57 -21 62 -9 62 5 0 15 -17 22 -37z m147 25 c23
-23 13 -38 -24 -38 -42 0 -43 -23 -1 -28 36 -4 35 -22 -1 -22 -47 0 -66 36
-42 81 12 21 50 25 68 7z m70 1 c-12 -7 -18 -22 -18 -49 0 -22 -4 -40 -10 -40
-5 0 -10 23 -10 50 0 48 1 50 28 50 23 -1 24 -2 10 -11z m312 2 c0 -5 -12 -11
-27 -13 l-28 -4 28 -14 c19 -9 27 -20 25 -34 -3 -24 -44 -34 -62 -16 -8 9 -5
11 13 8 13 -1 26 3 28 10 3 6 1 12 -4 12 -5 0 -18 6 -28 14 -16 12 -17 16 -6
30 14 17 61 22 61 7z m166 -48 c3 -15 12 -23 24 -23 17 0 20 7 20 40 0 22 5
40 10 40 6 0 10 -22 10 -49 l0 -49 -37 1 -38 2 -2 50 c-1 47 0 45 13 -12z
m132 46 c-12 -7 -18 -22 -18 -49 0 -22 -4 -40 -10 -40 -5 0 -10 23 -10 50 0
48 1 50 28 50 23 -1 24 -2 10 -11z m112 -9 c13 -24 13 -80 0 -80 -5 0 -10 15
-10 33 0 18 -5 38 -12 45 -18 18 -38 -5 -38 -44 0 -19 -4 -34 -10 -34 -5 0
-10 22 -10 48 0 49 0 49 35 50 25 1 38 -4 45 -18z m830 -1890 l0 -1440 -1440
0 -1440 0 0 1440 0 1440 1440 0 1440 0 0 -1440z m-1740 -1770 c0 -5 -14 -10
-31 -10 -17 0 -28 4 -24 10 3 6 17 10 31 10 13 0 24 -4 24 -10z m110 0 c0 -5
-13 -10 -30 -10 -16 0 -30 5 -30 10 0 6 14 10 30 10 17 0 30 -4 30 -10z m110
0 c0 -5 -13 -10 -30 -10 -16 0 -30 5 -30 10 0 6 14 10 30 10 17 0 30 -4 30
-10z m110 0 c0 -5 -13 -10 -30 -10 -16 0 -30 5 -30 10 0 6 14 10 30 10 17 0
30 -4 30 -10z m110 0 c0 -5 -13 -10 -30 -10 -16 0 -30 5 -30 10 0 6 14 10 30
10 17 0 30 -4 30 -10z m110 0 c0 -5 -13 -10 -30 -10 -16 0 -30 5 -30 10 0 6
14 10 30 10 17 0 30 -4 30 -10z m105 0 c4 -6 -7 -10 -24 -10 -17 0 -31 5 -31
10 0 6 11 10 24 10 14 0 28 -4 31 -10z m-745 -70 c0 -11 -4 -20 -10 -20 -5 0
-10 9 -10 20 0 11 5 20 10 20 6 0 10 -9 10 -20z m800 0 c0 -11 -4 -20 -10 -20
-5 0 -10 9 -10 20 0 11 5 20 10 20 6 0 10 -9 10 -20z m-800 -95 c0 -14 -4 -25
-10 -25 -5 0 -10 11 -10 25 0 14 5 25 10 25 6 0 10 -11 10 -25z m800 0 c0 -14
-4 -25 -10 -25 -5 0 -10 11 -10 25 0 14 5 25 10 25 6 0 10 -11 10 -25z m-553
-21 c3 -9 1 -24 -5 -34 -8 -13 -6 -22 11 -39 19 -19 20 -21 3 -21 -10 0 -26
10 -37 23 l-18 22 -1 -22 c0 -14 -6 -23 -15 -23 -12 0 -15 13 -15 55 l0 55 35
0 c24 0 38 -5 42 -16z m93 6 c0 -5 -9 -10 -20 -10 -11 0 -20 -4 -20 -10 0 -5
9 -10 20 -10 11 0 20 -4 20 -10 0 -5 -9 -10 -20 -10 -11 0 -20 -7 -20 -15 0
-9 9 -15 25 -15 14 0 25 -4 25 -10 0 -5 -16 -10 -35 -10 l-35 0 0 55 c0 54 0
55 30 55 17 0 30 -4 30 -10z m90 -4 c0 -9 -7 -12 -20 -9 -26 7 -26 -13 1 -27
33 -18 21 -54 -18 -58 -23 -2 -33 1 -33 11 0 10 8 13 25 9 14 -2 25 0 25 5 0
5 -11 15 -25 21 -23 11 -33 40 -18 55 13 13 63 7 63 -7z m90 4 c0 -5 -9 -10
-20 -10 -11 0 -20 -4 -20 -10 0 -5 9 -10 20 -10 11 0 20 -4 20 -10 0 -5 -9
-10 -20 -10 -11 0 -20 -7 -20 -15 0 -8 9 -15 20 -15 11 0 20 -4 20 -10 0 -5
-16 -10 -35 -10 l-35 0 0 55 0 55 35 0 c19 0 35 -4 35 -10z m100 0 c0 -5 -7
-10 -15 -10 -11 0 -15 -12 -15 -45 0 -33 -4 -45 -15 -45 -11 0 -15 12 -15 45
0 33 -4 45 -15 45 -8 0 -15 5 -15 10 0 6 20 10 45 10 25 0 45 -4 45 -10z
m-620 -75 c0 -14 -4 -25 -10 -25 -5 0 -10 11 -10 25 0 14 5 25 10 25 6 0 10
-11 10 -25z m800 0 c0 -14 -4 -25 -10 -25 -5 0 -10 11 -10 25 0 14 5 25 10 25
6 0 10 -11 10 -25z m-800 -95 c0 -11 -4 -20 -10 -20 -5 0 -10 9 -10 20 0 11 5
20 10 20 6 0 10 -9 10 -20z m800 0 c0 -11 -4 -20 -10 -20 -5 0 -10 9 -10 20 0
11 5 20 10 20 6 0 10 -9 10 -20z m-710 -70 c0 -5 -11 -10 -24 -10 -14 0 -28 5
-31 10 -4 6 7 10 24 10 17 0 31 -4 31 -10z m110 0 c0 -5 -13 -10 -30 -10 -16
0 -30 5 -30 10 0 6 14 10 30 10 17 0 30 -4 30 -10z m110 0 c0 -5 -13 -10 -30
-10 -16 0 -30 5 -30 10 0 6 14 10 30 10 17 0 30 -4 30 -10z m110 0 c0 -5 -13
-10 -30 -10 -16 0 -30 5 -30 10 0 6 14 10 30 10 17 0 30 -4 30 -10z m110 0 c0
-5 -13 -10 -30 -10 -16 0 -30 5 -30 10 0 6 14 10 30 10 17 0 30 -4 30 -10z
m110 0 c0 -5 -13 -10 -30 -10 -16 0 -30 5 -30 10 0 6 14 10 30 10 17 0 30 -4
30 -10z m105 0 c-3 -5 -17 -10 -31 -10 -13 0 -24 5 -24 10 0 6 14 10 31 10 17
0 28 -4 24 -10z"/>
<path d="M1540 4175 c0 -28 21 -33 40 -10 15 18 5 35 -21 35 -14 0 -19 -7 -19
-25z"/>
<path d="M1690 4110 c0 -5 9 -10 20 -10 11 0 20 5 20 10 0 6 -9 10 -20 10 -11
0 -20 -4 -20 -10z"/>
<path d="M1895 4150 c-4 -6 5 -10 19 -10 14 0 26 5 26 10 0 6 -9 10 -19 10
-11 0 -23 -4 -26 -10z"/>
<path d="M710 3230 l0 -460 460 0 460 0 0 460 0 460 -460 0 -460 0 0 -460z"/>
<path d="M1670 3230 l0 -460 460 0 460 0 0 460 0 460 -460 0 -460 0 0 -460z"/>
<path d="M2630 3230 l0 -460 460 0 460 0 0 460 0 460 -460 0 -460 0 0 -460z"/>
<path d="M710 2270 l0 -460 460 0 460 0 0 460 0 460 -460 0 -460 0 0 -460z"/>
<path d="M1670 2270 l0 -460 460 0 460 0 0 460 0 460 -460 0 -460 0 0 -460z"/>
<path d="M2630 2270 l0 -460 460 0 460 0 0 460 0 460 -460 0 -460 0 0 -460z"/>
<path d="M710 1310 l0 -460 460 0 460 0 0 460 0 460 -460 0 -460 0 0 -460z"/>
<path d="M1670 1310 l0 -460 460 0 460 0 0 460 0 460 -460 0 -460 0 0 -460z"/>
<path d="M2630 1310 l0 -460 460 0 460 0 0 460 0 460 -460 0 -460 0 0 -460z"/>
<path d="M1940 295 c0 -9 5 -15 11 -13 6 2 11 8 11 13 0 5 -5 11 -11 13 -6 2
-11 -4 -11 -13z"/>
</g>
</svg>
